<svg width="164" height="21" viewBox="0 0 164 21" fill="none" xmlns="http://www.w3.org/2000/svg">
<path d="M6.69675 9.21395C6.63768 9.13651 6.55963 9.07562 6.47015 9.03717C6.38066 8.99872 6.28277 8.98401 6.18593 8.99447C6.0891 9.00492 5.9966 9.04019 5.91738 9.09686C5.83817 9.15353 5.77492 9.22968 5.73375 9.31795L0.85575 19.041C0.811034 19.1297 0.789864 19.2284 0.79427 19.3277C0.798675 19.4269 0.828508 19.5234 0.880908 19.6078C0.933308 19.6923 1.00652 19.7618 1.09352 19.8098C1.18052 19.8578 1.27839 19.8826 1.37775 19.882H8.16975C8.27827 19.8843 8.38516 19.8552 8.47757 19.7983C8.56999 19.7413 8.64401 19.6589 8.69075 19.561C10.1558 16.542 9.26775 11.954 6.69675 9.21395ZM10.2727 0.368954C9.05823 2.23234 8.35023 4.38004 8.21854 6.60039C8.08685 8.82073 8.53601 11.0371 9.52175 13.031L12.7957 19.561C12.8443 19.6577 12.9189 19.739 13.0111 19.7957C13.1033 19.8524 13.2095 19.8823 13.3177 19.882H20.1077C20.2067 19.8815 20.3039 19.856 20.3903 19.8077C20.4767 19.7594 20.5494 19.69 20.6015 19.6059C20.6537 19.5219 20.6837 19.4259 20.6886 19.3271C20.6936 19.2283 20.6733 19.1298 20.6297 19.041C20.6297 19.041 11.4937 0.820954 11.2638 0.365954C11.2185 0.27283 11.148 0.194355 11.0601 0.139552C10.9723 0.0847483 10.8708 0.0558415 10.7673 0.0561549C10.6638 0.0564682 10.5625 0.0859891 10.475" fill="#9B9A9E"/>
</svg>
