<svg width="11" height="13" viewBox="0 0 11 13" fill="none" xmlns="http://www.w3.org/2000/svg">
<path d="M5.31536 12.1017C5.41405 12.1012 5.51162 12.0808 5.60219 12.0416C5.69276 12.0024 5.77446 11.9453 5.84236 11.8737L10.0124 7.70369C10.1714 7.53769 10.2414 7.36669 10.2414 7.18869C10.2414 6.78269 9.95536 6.49069 9.56836 6.49069C9.36536 6.49069 9.19336 6.57269 9.06636 6.70069L7.61936 8.12769L5.93736 9.96869L6.02636 8.49669L6.02636 0.802693C6.02636 0.377693 5.73436 0.0856934 5.31536 0.0856934C4.90236 0.0856934 4.61036 0.377693 4.61036 0.802693L4.61036 8.49669L4.70036 9.96869L3.01736 8.12869L1.57036 6.69969C1.50498 6.63291 1.42686 6.57991 1.34064 6.54384C1.25441 6.50777 1.16183 6.48936 1.06836 6.48969C0.681363 6.48969 0.395363 6.78269 0.395363 7.18869C0.395363 7.36669 0.465364 7.53869 0.611363 7.68969L4.79436 11.8737C4.86134 11.9446 4.94189 12.0013 5.03122 12.0405C5.12055 12.0796 5.21783 12.1005 5.31536 12.1017Z" fill="white" fill-opacity="0.4"/>
</svg>
