<svg width="100" height="29" viewBox="0 0 100 29" fill="none" xmlns="http://www.w3.org/2000/svg">
<path d="M34.4955 15.680  15.6185 2.5036C15.0435 1.3936 14.1775 0.793599 13.1575 0.793599C13.0915 0.793599 13.0245 0.793599 12.9365 0.816599C12.9135 0.771599 12.8695 0.749599 12.8465 0.705599C12.4035 0.217599 11.8265 -0.00440102 11.1395 0.017599C9.80848 0.061599 8.47748 1.0156 7.41248 2.7236C6.65848 3.9216 6.08248 5.4306 5.92648 6.6056C4.39648 7.0716 3.33148 7.4046 3.30848 7.4266C2.53248 7.6706 2.51048 7.6926 2.42148 8.4246C2.35448 8.9806 0.313477 24.5966 0.313477 24.5966L17.0835 27.5026V3.2136C16.9495 3.2136 16.8835 3.2356 16.8395 3.2356ZM12.9575 4.4326C12.0695 4.6996 11.0935 5.0096 10.1405 5.2976C10.4065 4.2556 10.9385 3.2126 11.5605 2.5256C11.8035 2.2816 12.1365 1.9926 12.5135 1.8156C12.8905 2.6136 12.9795 3.7006 12.9575 4.4326ZM11.1375 0.928599C11.4485 0.928599 11.7155 0.994599 11.9375 1.1286C11.5815 1.3056 11.2275 1.5936 10.8945 1.9266C10.0515 2.8366 9.40848 4.2556 9.14148 5.6086C8.34348 5.8526 7.54448 6.0966 6.81248 6.3186C7.30048 4.1886 9.09748 0.972599 11.1385 0.928599H11.1375ZM8.56548 13.1286C8.65348 14.5486 12.4025 14.8586 12.6245 18.2086C12.7795 20.8486 11.2275 22.6446 8.98648 22.7786C6.28048 22.9556 4.79448 21.3586 4.79448 21.3586L5.37048 18.9186C5.37048 18.9186 6.85748 20.0486 8.05448 19.9606C8.83148 19.9166 9.11948 19.2726 9.09748 18.8296C8.98648 16.9656 5.92548 17.0766 5.72548 14.0156C5.54848 11.4426 7.23448 8.8476 10.9605 8.6036C12.4025 8.5136 13.1345 8.8696 13.1345 8.8696L12.2915 12.0636C12.2915 12.0636 11.3375 11.6196 10.2065 11.7086C8.56548 11.8196 8.54248 12.8626 8.56548 13.1286ZM13.8445 4.1666C13.8445 3.5016 13.7555 2.5466 13.4445 1.7486C14.4655 1.9486 14.9545 3.0796 15.1745 3.7676C14.7765 3.8776 14.3325 4.0106 13.8445 4.1666ZM17.5925 27.4586L24.5575 25.7286C24.5575 25.7286 21.5635 5.4746 21.5405 5.3416C21.5321 5.28193 21.5032 5.22706 21.4586 5.18651C21.414 5.14596 21.3567 5.12229 21.2965 5.1196C21.1865 5.1196 19.2335 5.0756 19.2335 5.0756C19.2335 5.0756 18.0365 3.9216 17.5925 3.4786V27.4586Z" fill="#9B9A9E"/>
</svg>
