<svg width="14" height="18" viewBox="0 0 14 18" fill="none" xmlns="http://www.w3.org/2000/svg">
<path fill-rule="evenodd" clip-rule="evenodd" d="M7.00033 0.041748C4.8142 0.041748 3.04199 1.81395 3.04199 4.00008C3.04199 6.18621 4.8142 7.95842 7.00033 7.95842C9.18645 7.95842 10.9587 6.18621 10.9587 4.00008C10.9587 1.81395 9.18645 0.041748 7.00033 0.041748ZM4.29199 4.00008C4.29199 2.50431 5.50455 1.29175 7.00033 1.29175C8.4961 1.29175 9.70866 2.50431 9.70866 4.00008C9.70866 5.49585 8.4961 6.70842 7.00033 6.70842C5.50455 6.70842 4.29199 5.49585 4.29199 4.00008Z" fill="white"/>
<path fill-rule="evenodd" clip-rule="evenodd" d="M7.00033 9.20842C5.30088 9.20842 3.73159 9.60071 2.56545 10.2671C1.41699 10.9233 0.541992 11.9252 0.541992 13.1667C0.541992 14.4083 1.41699 15.4102 2.56545 16.0664C3.73159 16.7328 5.30088 17.1251 7.00033 17.1251C8.69977 17.1251 10.2691 16.7328 11.4352 16.0664C12.5837 15.4102 13.4587 14.4083 13.4587 13.1667C13.4587 11.9252 12.5837 10.9233 11.4352 10.2671C10.2691 9.60071 8.69977 9.20842 7.00033 9.20842ZM1.79199 13.1667C1.79199 12.5674 2.22283 11.9025 3.18562 11.3524C4.13073 10.8123 5.47811 10.4584 7.00033 10.4584C8.52254 10.4584 9.86992 10.8123 10.815 11.3524C11.7778 11.9025 12.2087 12.5674 12.2087 13.1667C12.2087 13.7661 11.7778 14.431 10.815 14.9811C9.86992 15.5212 8.52254 15.8751 7.00033 15.8751C5.47811 15.8751 4.13073 15.5212 3.18562 14.9811C2.22283 14.431 1.79199 13.7661 1.79199 13.1667Z" fill="white"/>
</svg>
